<svg width="801" height="286" viewBox="0 0 801 286" fill="none" xmlns="http://www.w3.org/2000/svg">
<circle cx="143" cy="143" r="143" fill="black"/>
<ellipse cx="142.391" cy="143.609" rx="111.966" ry="111.966" fill="#01C301"/>
<path d="M203.429 196.955C196.955 200.192 188.322 198.034 184.005 191.559L172.135 176.452H113.865L101.994 191.559C96.599 199.113 86.8872 200.192 79.3336 194.796C73.9381 190.48 71.7799 184.006 72.859 178.61L80.4127 138.684C82.5708 125.735 94.4408 116.023 107.39 116.023H137.605V99.8363C137.605 91.2036 144.079 83.65 152.712 83.65H186.164C189.401 83.65 191.559 85.8081 191.559 89.0454C191.559 92.2827 189.401 94.4409 186.164 94.4409H153.791C150.554 94.4409 148.395 96.5991 148.395 98.7573V99.8363V116.023H178.61C191.559 116.023 203.429 125.735 205.587 138.684L213.141 178.61C214.22 186.164 210.983 193.717 203.429 196.955ZM126.814 143C126.814 134.367 119.26 126.814 110.627 126.814C101.994 126.814 94.4408 134.367 94.4408 143C94.4408 151.633 101.994 159.186 110.627 159.186C119.26 159.186 126.814 151.633 126.814 143ZM191.559 143C191.559 139.763 189.401 137.605 186.164 137.605H180.768V132.209C180.768 128.972 178.61 126.814 175.373 126.814C172.135 126.814 169.977 128.972 169.977 132.209V137.605H164.582C161.345 137.605 159.186 139.763 159.186 143C159.186 146.237 161.345 148.395 164.582 148.395H169.977V153.791C169.977 157.028 172.135 159.186 175.373 159.186C178.61 159.186 180.768 157.028 180.768 153.791V148.395H186.164C189.401 148.395 191.559 146.237 191.559 143Z" fill="url(#paint0_linear_0_1)"/>
<path d="M321.074 117.234L331.465 139.93L341.855 117.234H353.032L336.66 148.885V167H326.27V148.885L309.863 117.234H321.074ZM353.135 148.885V148.167C353.135 145.455 353.522 142.96 354.297 140.682C355.072 138.38 356.2 136.386 357.681 134.7C359.162 133.014 360.985 131.704 363.149 130.77C365.314 129.812 367.798 129.334 370.601 129.334C373.403 129.334 375.898 129.812 378.086 130.77C380.273 131.704 382.108 133.014 383.589 134.7C385.093 136.386 386.232 138.38 387.007 140.682C387.782 142.96 388.169 145.455 388.169 148.167V148.885C388.169 151.574 387.782 154.069 387.007 156.37C386.232 158.649 385.093 160.643 383.589 162.352C382.108 164.038 380.285 165.348 378.12 166.282C375.955 167.216 373.472 167.684 370.669 167.684C367.866 167.684 365.371 167.216 363.184 166.282C361.019 165.348 359.185 164.038 357.681 162.352C356.2 160.643 355.072 158.649 354.297 156.37C353.522 154.069 353.135 151.574 353.135 148.885ZM362.979 148.167V148.885C362.979 150.434 363.115 151.881 363.389 153.226C363.662 154.57 364.095 155.755 364.688 156.78C365.303 157.783 366.1 158.569 367.08 159.139C368.06 159.708 369.256 159.993 370.669 159.993C372.036 159.993 373.21 159.708 374.189 159.139C375.169 158.569 375.955 157.783 376.548 156.78C377.14 155.755 377.573 154.57 377.847 153.226C378.143 151.881 378.291 150.434 378.291 148.885V148.167C378.291 146.663 378.143 145.25 377.847 143.929C377.573 142.584 377.129 141.399 376.514 140.374C375.921 139.326 375.135 138.506 374.155 137.913C373.175 137.321 371.991 137.024 370.601 137.024C369.211 137.024 368.026 137.321 367.046 137.913C366.089 138.506 365.303 139.326 364.688 140.374C364.095 141.399 363.662 142.584 363.389 143.929C363.115 145.25 362.979 146.663 362.979 148.167ZM416.094 158.147V130.018H425.938V167H416.675L416.094 158.147ZM417.188 150.56L420.093 150.491C420.093 152.952 419.808 155.242 419.238 157.361C418.669 159.458 417.814 161.281 416.675 162.83C415.535 164.357 414.1 165.553 412.368 166.419C410.636 167.262 408.597 167.684 406.25 167.684C404.45 167.684 402.786 167.433 401.26 166.932C399.756 166.408 398.457 165.599 397.363 164.505C396.292 163.388 395.449 161.964 394.834 160.232C394.242 158.478 393.945 156.37 393.945 153.909V130.018H403.789V153.978C403.789 155.071 403.914 155.994 404.165 156.746C404.438 157.498 404.814 158.113 405.293 158.592C405.771 159.07 406.33 159.412 406.968 159.617C407.629 159.822 408.358 159.925 409.155 159.925C411.183 159.925 412.778 159.515 413.94 158.694C415.125 157.874 415.957 156.757 416.436 155.345C416.937 153.909 417.188 152.314 417.188 150.56ZM443.301 138.084V167H433.457V130.018H442.72L443.301 138.084ZM454.443 129.778L454.272 138.904C453.794 138.836 453.213 138.779 452.529 138.733C451.868 138.665 451.265 138.631 450.718 138.631C449.328 138.631 448.12 138.813 447.095 139.178C446.092 139.52 445.249 140.032 444.565 140.716C443.905 141.399 443.403 142.231 443.062 143.211C442.743 144.191 442.56 145.307 442.515 146.561L440.532 145.945C440.532 143.553 440.771 141.354 441.25 139.349C441.729 137.321 442.424 135.555 443.335 134.051C444.269 132.547 445.409 131.385 446.753 130.564C448.097 129.744 449.635 129.334 451.367 129.334C451.914 129.334 452.472 129.38 453.042 129.471C453.612 129.539 454.079 129.642 454.443 129.778ZM499.15 140.989V160.711C498.376 161.645 497.179 162.659 495.562 163.753C493.944 164.824 491.859 165.747 489.307 166.521C486.755 167.296 483.667 167.684 480.044 167.684C476.831 167.684 473.903 167.16 471.26 166.111C468.617 165.04 466.338 163.479 464.424 161.429C462.533 159.378 461.074 156.871 460.049 153.909C459.023 150.924 458.511 147.518 458.511 143.689V140.579C458.511 136.751 459.001 133.344 459.98 130.359C460.983 127.374 462.407 124.856 464.253 122.806C466.099 120.755 468.298 119.194 470.85 118.123C473.402 117.052 476.239 116.517 479.36 116.517C483.69 116.517 487.244 117.223 490.024 118.636C492.804 120.026 494.924 121.963 496.382 124.446C497.863 126.907 498.774 129.733 499.116 132.923H489.17C488.919 131.237 488.441 129.767 487.734 128.514C487.028 127.26 486.014 126.281 484.692 125.574C483.394 124.868 481.707 124.515 479.634 124.515C477.925 124.515 476.398 124.868 475.054 125.574C473.732 126.258 472.616 127.272 471.704 128.616C470.793 129.961 470.098 131.624 469.619 133.606C469.141 135.589 468.901 137.89 468.901 140.511V143.689C468.901 146.287 469.152 148.589 469.653 150.594C470.155 152.576 470.895 154.251 471.875 155.618C472.878 156.963 474.108 157.977 475.566 158.66C477.025 159.344 478.722 159.686 480.659 159.686C482.277 159.686 483.621 159.549 484.692 159.275C485.786 159.002 486.663 158.672 487.324 158.284C488.008 157.874 488.532 157.487 488.896 157.122V148.304H479.531V140.989H499.15ZM526.768 158.66V142.186C526.768 141.001 526.574 139.987 526.187 139.144C525.799 138.278 525.195 137.605 524.375 137.127C523.577 136.648 522.541 136.409 521.265 136.409C520.171 136.409 519.225 136.603 518.428 136.99C517.63 137.355 517.015 137.89 516.582 138.597C516.149 139.28 515.933 140.089 515.933 141.023H506.089C506.089 139.451 506.453 137.959 507.183 136.546C507.912 135.133 508.971 133.891 510.361 132.82C511.751 131.727 513.403 130.872 515.317 130.257C517.254 129.642 519.419 129.334 521.812 129.334C524.683 129.334 527.235 129.812 529.468 130.77C531.701 131.727 533.455 133.162 534.731 135.076C536.03 136.99 536.68 139.383 536.68 142.254V158.079C536.68 160.107 536.805 161.771 537.056 163.069C537.306 164.345 537.671 165.462 538.149 166.419V167H528.203C527.725 165.997 527.36 164.744 527.109 163.24C526.882 161.714 526.768 160.187 526.768 158.66ZM528.066 144.476L528.135 150.047H522.632C521.333 150.047 520.205 150.195 519.248 150.491C518.291 150.787 517.505 151.209 516.89 151.756C516.274 152.28 515.819 152.895 515.522 153.602C515.249 154.308 515.112 155.083 515.112 155.926C515.112 156.769 515.306 157.532 515.693 158.216C516.081 158.877 516.639 159.401 517.368 159.788C518.097 160.153 518.952 160.335 519.932 160.335C521.413 160.335 522.7 160.039 523.794 159.446C524.888 158.854 525.731 158.125 526.323 157.259C526.938 156.393 527.257 155.573 527.28 154.798L529.878 158.968C529.513 159.902 529.012 160.87 528.374 161.873C527.759 162.876 526.973 163.821 526.016 164.71C525.059 165.576 523.908 166.294 522.563 166.863C521.219 167.41 519.624 167.684 517.778 167.684C515.431 167.684 513.301 167.216 511.387 166.282C509.495 165.325 507.992 164.015 506.875 162.352C505.781 160.665 505.234 158.751 505.234 156.609C505.234 154.673 505.599 152.952 506.328 151.448C507.057 149.944 508.128 148.68 509.541 147.654C510.977 146.606 512.765 145.82 514.907 145.296C517.049 144.749 519.533 144.476 522.358 144.476H528.066ZM554.111 137.674V167H544.233V130.018H553.496L554.111 137.674ZM552.744 147.21H550.01C550.01 144.635 550.317 142.265 550.933 140.101C551.571 137.913 552.493 136.022 553.701 134.427C554.932 132.809 556.447 131.556 558.247 130.667C560.047 129.778 562.132 129.334 564.502 129.334C566.143 129.334 567.646 129.585 569.014 130.086C570.381 130.564 571.554 131.328 572.534 132.376C573.537 133.401 574.312 134.746 574.858 136.409C575.405 138.05 575.679 140.021 575.679 142.322V167H565.835V143.416C565.835 141.73 565.607 140.431 565.151 139.52C564.696 138.608 564.046 137.97 563.203 137.605C562.383 137.241 561.392 137.059 560.229 137.059C558.953 137.059 557.837 137.321 556.88 137.845C555.946 138.369 555.171 139.098 554.556 140.032C553.94 140.944 553.485 142.015 553.188 143.245C552.892 144.476 552.744 145.797 552.744 147.21ZM574.756 146.082L571.235 146.526C571.235 144.111 571.532 141.867 572.124 139.793C572.739 137.719 573.639 135.896 574.824 134.324C576.032 132.752 577.524 131.533 579.302 130.667C581.079 129.778 583.13 129.334 585.454 129.334C587.231 129.334 588.849 129.596 590.308 130.12C591.766 130.621 593.008 131.43 594.033 132.547C595.081 133.641 595.879 135.076 596.426 136.854C596.995 138.631 597.28 140.807 597.28 143.382V167H587.402V143.382C587.402 141.673 587.174 140.374 586.719 139.485C586.286 138.574 585.648 137.947 584.805 137.605C583.984 137.241 583.005 137.059 581.865 137.059C580.68 137.059 579.644 137.298 578.755 137.776C577.866 138.232 577.126 138.87 576.533 139.69C575.941 140.511 575.496 141.468 575.2 142.562C574.904 143.632 574.756 144.806 574.756 146.082ZM621.924 167.684C619.053 167.684 616.478 167.228 614.199 166.316C611.921 165.382 609.984 164.095 608.389 162.454C606.816 160.813 605.609 158.911 604.766 156.746C603.923 154.559 603.501 152.234 603.501 149.773V148.406C603.501 145.604 603.9 143.04 604.697 140.716C605.495 138.392 606.634 136.375 608.115 134.666C609.619 132.957 611.442 131.647 613.584 130.735C615.726 129.801 618.141 129.334 620.83 129.334C623.451 129.334 625.775 129.767 627.803 130.633C629.831 131.499 631.528 132.729 632.896 134.324C634.285 135.919 635.334 137.833 636.04 140.066C636.746 142.277 637.1 144.738 637.1 147.449V151.551H607.705V144.988H627.427V144.236C627.427 142.869 627.176 141.65 626.675 140.579C626.196 139.485 625.467 138.619 624.487 137.981C623.507 137.343 622.254 137.024 620.728 137.024C619.429 137.024 618.312 137.309 617.378 137.879C616.444 138.449 615.68 139.246 615.088 140.271C614.518 141.297 614.085 142.505 613.789 143.895C613.516 145.262 613.379 146.766 613.379 148.406V149.773C613.379 151.255 613.584 152.622 613.994 153.875C614.427 155.128 615.031 156.211 615.806 157.122C616.603 158.034 617.56 158.74 618.677 159.241C619.816 159.743 621.104 159.993 622.539 159.993C624.316 159.993 625.968 159.651 627.495 158.968C629.045 158.261 630.378 157.202 631.494 155.789L636.279 160.984C635.505 162.101 634.445 163.172 633.101 164.197C631.779 165.223 630.184 166.066 628.315 166.727C626.447 167.365 624.316 167.684 621.924 167.684ZM662.803 145.159H650.02L649.951 138.118H660.684C662.575 138.118 664.124 137.879 665.332 137.4C666.54 136.899 667.44 136.181 668.032 135.247C668.647 134.29 668.955 133.128 668.955 131.761C668.955 130.211 668.659 128.958 668.066 128.001C667.497 127.044 666.597 126.349 665.366 125.916C664.159 125.483 662.598 125.267 660.684 125.267H653.574V167H643.32V117.234H660.684C663.577 117.234 666.164 117.508 668.442 118.055C670.744 118.602 672.692 119.433 674.287 120.55C675.882 121.666 677.101 123.079 677.944 124.788C678.787 126.474 679.209 128.479 679.209 130.804C679.209 132.854 678.742 134.746 677.808 136.478C676.896 138.209 675.449 139.622 673.467 140.716C671.507 141.81 668.944 142.413 665.776 142.527L662.803 145.159ZM662.358 167H647.217L651.216 159.002H662.358C664.159 159.002 665.628 158.717 666.768 158.147C667.907 157.555 668.75 156.757 669.297 155.755C669.844 154.752 670.117 153.602 670.117 152.303C670.117 150.844 669.867 149.58 669.365 148.509C668.887 147.438 668.112 146.618 667.041 146.048C665.97 145.455 664.557 145.159 662.803 145.159H652.925L652.993 138.118H665.298L667.656 140.887C670.687 140.841 673.125 141.377 674.971 142.493C676.839 143.587 678.195 145.011 679.038 146.766C679.904 148.52 680.337 150.4 680.337 152.405C680.337 155.595 679.642 158.284 678.252 160.472C676.862 162.636 674.823 164.266 672.134 165.359C669.468 166.453 666.209 167 662.358 167ZM685.84 148.885V148.167C685.84 145.455 686.227 142.96 687.002 140.682C687.777 138.38 688.905 136.386 690.386 134.7C691.867 133.014 693.69 131.704 695.854 130.77C698.019 129.812 700.503 129.334 703.306 129.334C706.108 129.334 708.604 129.812 710.791 130.77C712.979 131.704 714.813 133.014 716.294 134.7C717.798 136.386 718.937 138.38 719.712 140.682C720.487 142.96 720.874 145.455 720.874 148.167V148.885C720.874 151.574 720.487 154.069 719.712 156.37C718.937 158.649 717.798 160.643 716.294 162.352C714.813 164.038 712.99 165.348 710.825 166.282C708.66 167.216 706.177 167.684 703.374 167.684C700.571 167.684 698.076 167.216 695.889 166.282C693.724 165.348 691.89 164.038 690.386 162.352C688.905 160.643 687.777 158.649 687.002 156.37C686.227 154.069 685.84 151.574 685.84 148.885ZM695.684 148.167V148.885C695.684 150.434 695.82 151.881 696.094 153.226C696.367 154.57 696.8 155.755 697.393 156.78C698.008 157.783 698.805 158.569 699.785 159.139C700.765 159.708 701.961 159.993 703.374 159.993C704.741 159.993 705.915 159.708 706.895 159.139C707.874 158.569 708.66 157.783 709.253 156.78C709.845 155.755 710.278 154.57 710.552 153.226C710.848 151.881 710.996 150.434 710.996 148.885V148.167C710.996 146.663 710.848 145.25 710.552 143.929C710.278 142.584 709.834 141.399 709.219 140.374C708.626 139.326 707.84 138.506 706.86 137.913C705.881 137.321 704.696 137.024 703.306 137.024C701.916 137.024 700.731 137.321 699.751 137.913C698.794 138.506 698.008 139.326 697.393 140.374C696.8 141.399 696.367 142.584 696.094 143.929C695.82 145.25 695.684 146.663 695.684 148.167ZM725.352 148.885V148.167C725.352 145.455 725.739 142.96 726.514 140.682C727.288 138.38 728.416 136.386 729.897 134.7C731.379 133.014 733.201 131.704 735.366 130.77C737.531 129.812 740.015 129.334 742.817 129.334C745.62 129.334 748.115 129.812 750.303 130.77C752.49 131.704 754.325 133.014 755.806 134.7C757.31 136.386 758.449 138.38 759.224 140.682C759.998 142.96 760.386 145.455 760.386 148.167V148.885C760.386 151.574 759.998 154.069 759.224 156.37C758.449 158.649 757.31 160.643 755.806 162.352C754.325 164.038 752.502 165.348 750.337 166.282C748.172 167.216 745.688 167.684 742.886 167.684C740.083 167.684 737.588 167.216 735.4 166.282C733.236 165.348 731.401 164.038 729.897 162.352C728.416 160.643 727.288 158.649 726.514 156.37C725.739 154.069 725.352 151.574 725.352 148.885ZM735.195 148.167V148.885C735.195 150.434 735.332 151.881 735.605 153.226C735.879 154.57 736.312 155.755 736.904 156.78C737.52 157.783 738.317 158.569 739.297 159.139C740.277 159.708 741.473 159.993 742.886 159.993C744.253 159.993 745.426 159.708 746.406 159.139C747.386 158.569 748.172 157.783 748.765 156.78C749.357 155.755 749.79 154.57 750.063 153.226C750.36 151.881 750.508 150.434 750.508 148.885V148.167C750.508 146.663 750.36 145.25 750.063 143.929C749.79 142.584 749.346 141.399 748.73 140.374C748.138 139.326 747.352 138.506 746.372 137.913C745.392 137.321 744.207 137.024 742.817 137.024C741.427 137.024 740.243 137.321 739.263 137.913C738.306 138.506 737.52 139.326 736.904 140.374C736.312 141.399 735.879 142.584 735.605 143.929C735.332 145.25 735.195 146.663 735.195 148.167ZM776.279 114.466V167H766.436V114.466H776.279ZM799.59 130.018L783.525 148.338L774.912 157.054L771.323 149.944L778.159 141.263L787.764 130.018H799.59ZM789.37 167L778.433 149.91L785.234 143.963L800.718 167H789.37Z" fill="black"/>
<defs>
<linearGradient id="paint0_linear_0_1" x1="213.699" y1="69.045" x2="39.2769" y2="268.584" gradientUnits="userSpaceOnUse">
<stop offset="0.281416"/>
<stop offset="1" stop-opacity="0.42"/>
</linearGradient>
</defs>
</svg>
